<svg width="83" height="71" viewBox="0 0 83 71" fill="none" xmlns="http://www.w3.org/2000/svg">
<g filter="url(#filter0_d_10469_48461)">
<circle cx="41.5" cy="31.5" r="11" stroke="url(#paint0_linear_10469_48461)"/>
</g>
<path d="M41.1794 31.7129C41.8828 31.0092 42.3618 30.1128 42.5559 29.137C42.7501 28.1612 42.6506 27.1498 42.2701 26.2305C43.355 26.444 44.3515 26.9764 45.1323 27.7594C47.3153 29.9424 47.3153 33.4822 45.1323 35.6652C42.9487 37.8487 39.4095 37.8482 37.2259 35.6652C36.4431 34.8845 35.9108 33.8882 35.697 32.8035C36.6163 33.184 37.6277 33.2834 38.6035 33.0893C39.5793 32.8952 40.4757 32.4162 41.1794 31.7129Z" fill="url(#paint1_linear_10469_48461)"/>
<defs>
<filter id="filter0_d_10469_48461" x="0" y="0" width="83" height="83" filterUnits="userSpaceOnUse" color-interpolation-filters="sRGB">
<feFlood flood-opacity="0" result="BackgroundImageFix"/>
<feColorMatrix in="SourceAlpha" type="matrix" values="0 0 0 0 0 0 0 0 0 0 0 0 0 0 0 0 0 0 127 0" result="hardAlpha"/>
<feOffset dy="10"/>
<feGaussianBlur stdDeviation="15"/>
<feColorMatrix type="matrix" values="0 0 0 0 0.220833 0 0 0 0 0.220833 0 0 0 0 0.220833 0 0 0 0.2 0"/>
<feBlend mode="normal" in2="BackgroundImageFix" result="effect1_dropShadow_10469_48461"/>
<feBlend mode="normal" in="SourceGraphic" in2="effect1_dropShadow_10469_48461" result="shape"/>
</filter>
<linearGradient id="paint0_linear_10469_48461" x1="53" y1="31.6456" x2="30" y2="31.6456" gradientUnits="userSpaceOnUse">
<stop stop-color="#F0899E"/>
<stop offset="0.244792" stop-color="#9617D2"/>
<stop offset="0.510417" stop-color="#4E0FFF"/>
<stop offset="0.75" stop-color="#2C60FD"/>
<stop offset="1" stop-color="#30F0F6"/>
</linearGradient>
<linearGradient id="paint1_linear_10469_48461" x1="46.7695" y1="37.3026" x2="20.2537" y2="26.6043" gradientUnits="userSpaceOnUse">
<stop stop-color="#07FBF9"/>
<stop offset="0.317708" stop-color="#4A85E8"/>
<stop offset="0.572917" stop-color="#A61C90"/>
</linearGradient>
</defs>
</svg>
