<svg width="23" height="23" viewBox="0 0 23 23" fill="none" xmlns="http://www.w3.org/2000/svg">
<g opacity="0.3">
<circle cx="11.5" cy="11.5" r="11" stroke="url(#paint0_linear_10469_48455)"/>
<path d="M11.4992 14.7357C10.652 14.7357 9.8395 14.3991 9.24043 13.8C8.64135 13.201 8.3048 12.3885 8.3048 11.5412C8.3048 10.694 8.64135 9.88149 9.24043 9.28242C9.8395 8.68334 10.652 8.34679 11.4992 8.34679C12.3465 8.34679 13.159 8.68334 13.7581 9.28242C14.3571 9.88149 14.6937 10.694 14.6937 11.5412C14.6937 12.3885 14.3571 13.201 13.7581 13.8C13.159 14.3991 12.3465 14.7357 11.4992 14.7357ZM11.4992 5.15234C11.6687 5.15234 11.8312 5.21966 11.951 5.33947C12.0708 5.45928 12.1381 5.62179 12.1381 5.79123V7.06901C12.1381 7.23845 12.0708 7.40096 11.951 7.52077C11.8312 7.64059 11.6687 7.7079 11.4992 7.7079C11.3298 7.7079 11.1673 7.64059 11.0475 7.52077C10.9277 7.40096 10.8604 7.23845 10.8604 7.06901V5.79123C10.8604 5.62179 10.9277 5.45928 11.0475 5.33947C11.1673 5.21966 11.3298 5.15234 11.4992 5.15234V5.15234ZM11.4992 15.3746C11.6687 15.3746 11.8312 15.4419 11.951 15.5617C12.0708 15.6815 12.1381 15.844 12.1381 16.0135V17.2912C12.1381 17.4607 12.0708 17.6232 11.951 17.743C11.8312 17.8628 11.6687 17.9301 11.4992 17.9301C11.3298 17.9301 11.1673 17.8628 11.0475 17.743C10.9277 17.6232 10.8604 17.4607 10.8604 17.2912V16.0135C10.8604 15.844 10.9277 15.6815 11.0475 15.5617C11.1673 15.4419 11.3298 15.3746 11.4992 15.3746V15.3746ZM5.74924 10.9023H7.02702C7.19646 10.9023 7.35897 10.9697 7.47878 11.0895C7.5986 11.2093 7.66591 11.3718 7.66591 11.5412C7.66591 11.7107 7.5986 11.8732 7.47878 11.993C7.35897 12.1128 7.19646 12.1801 7.02702 12.1801H5.74924C5.5798 12.1801 5.41729 12.1128 5.29748 11.993C5.17766 11.8732 5.11035 11.7107 5.11035 11.5412C5.11035 11.3718 5.17766 11.2093 5.29748 11.0895C5.41729 10.9697 5.5798 10.9023 5.74924 10.9023V10.9023ZM15.9715 10.9023H17.2492C17.4187 10.9023 17.5812 10.9697 17.701 11.0895C17.8208 11.2093 17.8881 11.3718 17.8881 11.5412C17.8881 11.7107 17.8208 11.8732 17.701 11.993C17.5812 12.1128 17.4187 12.1801 17.2492 12.1801H15.9715C15.802 12.1801 15.6395 12.1128 15.5197 11.993C15.3999 11.8732 15.3326 11.7107 15.3326 11.5412C15.3326 11.3718 15.3999 11.2093 15.5197 11.0895C15.6395 10.9697 15.802 10.9023 15.9715 10.9023ZM16.0168 7.02365C16.1366 7.14346 16.2039 7.30593 16.2039 7.47534C16.2039 7.64475 16.1366 7.80723 16.0168 7.92704L15.1134 8.83043C15.0545 8.89145 14.984 8.94012 14.9061 8.9736C14.8281 9.00709 14.7443 9.02471 14.6594 9.02545C14.5746 9.02619 14.4905 9.01002 14.412 8.9779C14.3334 8.94577 14.2621 8.89833 14.2021 8.83835C14.1421 8.77836 14.0947 8.70703 14.0626 8.62851C14.0305 8.54999 14.0143 8.46586 14.015 8.38103C14.0158 8.2962 14.0334 8.21237 14.0669 8.13442C14.1004 8.05647 14.149 7.98597 14.21 7.92704L15.1134 7.02365C15.2332 6.90388 15.3957 6.83659 15.5651 6.83659C15.7345 6.83659 15.897 6.90388 16.0168 7.02365ZM8.78843 14.252C8.90821 14.3718 8.97549 14.5343 8.97549 14.7037C8.97549 14.8731 8.90821 15.0356 8.78843 15.1554L7.88505 16.0588C7.82611 16.1198 7.75561 16.1685 7.67767 16.202C7.59972 16.2355 7.51588 16.2531 7.43105 16.2538C7.34622 16.2546 7.26209 16.2384 7.18358 16.2063C7.10506 16.1742 7.03372 16.1267 6.97374 16.0667C6.91375 16.0067 6.86631 15.9354 6.83419 15.8569C6.80206 15.7784 6.7859 15.6943 6.78664 15.6094C6.78737 15.5246 6.805 15.4408 6.83848 15.3628C6.87196 15.2849 6.92064 15.2144 6.98166 15.1554L7.88505 14.252C8.00486 14.1323 8.16733 14.065 8.33674 14.065C8.50615 14.065 8.66863 14.1323 8.78843 14.252V14.252ZM7.88505 7.02365L8.78843 7.92704C8.90481 8.04753 8.96921 8.20892 8.96775 8.37643C8.9663 8.54395 8.89911 8.70419 8.78065 8.82264C8.6622 8.9411 8.50196 9.00829 8.33444 9.00975C8.16693 9.0112 8.00554 8.94681 7.88505 8.83043L6.9823 7.92704C6.86592 7.80654 6.80152 7.64516 6.80298 7.47764C6.80443 7.31013 6.87162 7.14989 6.99008 7.03143C7.10853 6.91298 7.26877 6.84579 7.43629 6.84433C7.6038 6.84287 7.76519 6.90727 7.88568 7.02365H7.88505ZM15.1134 14.252L16.0168 15.1554C16.1332 15.2759 16.1976 15.4373 16.1961 15.6048C16.1947 15.7723 16.1275 15.9326 16.009 16.051C15.8906 16.1695 15.7303 16.2367 15.5628 16.2381C15.3953 16.2396 15.2339 16.1752 15.1134 16.0588L14.21 15.1554C14.149 15.0965 14.1004 15.026 14.0669 14.948C14.0334 14.8701 14.0158 14.7863 14.015 14.7014C14.0143 14.6166 14.0305 14.5325 14.0626 14.454C14.0947 14.3754 14.1421 14.3041 14.2021 14.2441C14.2621 14.1841 14.3334 14.1367 14.412 14.1046C14.4905 14.0724 14.5746 14.0563 14.6594 14.057C14.7443 14.0578 14.8281 14.0754 14.9061 14.1089C14.984 14.1423 15.0545 14.191 15.1134 14.252V14.252Z" fill="url(#paint1_linear_10469_48455)"/>
</g>
<defs>
<linearGradient id="paint0_linear_10469_48455" x1="23" y1="11.6456" x2="1.108e-07" y2="11.6456" gradientUnits="userSpaceOnUse">
<stop stop-color="#F0899E"/>
<stop offset="0.244792" stop-color="#9617D2"/>
<stop offset="0.510417" stop-color="#4E0FFF"/>
<stop offset="0.75" stop-color="#2C60FD"/>
<stop offset="1" stop-color="#30F0F6"/>
</linearGradient>
<linearGradient id="paint1_linear_10469_48455" x1="17.8881" y1="11.6221" x2="5.11035" y2="11.6221" gradientUnits="userSpaceOnUse">
<stop stop-color="#F0899E"/>
<stop offset="0.244792" stop-color="#9617D2"/>
<stop offset="0.510417" stop-color="#4E0FFF"/>
<stop offset="0.75" stop-color="#2C60FD"/>
<stop offset="1" stop-color="#30F0F6"/>
</linearGradient>
</defs>
</svg>
