<svg width="95" height="99" viewBox="0 0 95 99" fill="none" xmlns="http://www.w3.org/2000/svg">
<g clip-path="url(#clip0_10545_149)">
<path d="M15.5449 96L14.4902 93.2812H11.0566L10.0078 96H9L12.3516 87.3984H13.248L16.5762 96H15.5449ZM14.1914 92.3965L13.1895 89.6953C13.166 89.625 13.127 89.5098 13.0723 89.3496C13.0215 89.1895 12.9688 89.0234 12.9141 88.8516C12.8594 88.6797 12.8145 88.541 12.7793 88.4355C12.7402 88.5957 12.6973 88.7559 12.6504 88.916C12.6074 89.0723 12.5645 89.2188 12.5215 89.3555C12.4785 89.4883 12.4414 89.6016 12.4102 89.6953L11.3906 92.3965H14.1914ZM27.5801 96H26.4316L21.7617 88.8047H21.7148C21.7266 88.9961 21.7402 89.2148 21.7559 89.4609C21.7715 89.7031 21.7832 89.9629 21.791 90.2402C21.8027 90.5137 21.8086 90.793 21.8086 91.0781V96H20.8828V87.4336H22.0254L26.6777 94.6055H26.7188C26.7109 94.4688 26.7012 94.2754 26.6895 94.0254C26.6777 93.7715 26.666 93.5 26.6543 93.2109C26.6465 92.918 26.6426 92.6465 26.6426 92.3965V87.4336H27.5801V96ZM32.2441 89.4609C32.791 89.4609 33.2598 89.582 33.6504 89.8242C34.041 90.0664 34.3398 90.4062 34.5469 90.8438C34.7539 91.2773 34.8574 91.7852 34.8574 92.3672V92.9707H30.4219C30.4336 93.7246 30.6211 94.2988 30.9844 94.6934C31.3477 95.0879 31.8594 95.2852 32.5195 95.2852C32.9258 95.2852 33.2852 95.248 33.5977 95.1738C33.9102 95.0996 34.2344 94.9902 34.5703 94.8457V95.7012C34.2461 95.8457 33.9238 95.9512 33.6035 96.0176C33.2871 96.084 32.9121 96.1172 32.4785 96.1172C31.8613 96.1172 31.3223 95.9922 30.8613 95.7422C30.4043 95.4883 30.0488 95.1172 29.7949 94.6289C29.541 94.1406 29.4141 93.543 29.4141 92.8359C29.4141 92.1445 29.5293 91.5469 29.7598 91.043C29.9941 90.5352 30.3223 90.1445 30.7441 89.8711C31.1699 89.5977 31.6699 89.4609 32.2441 89.4609ZM32.2324 90.2578C31.7129 90.2578 31.2988 90.4277 30.9902 90.7676C30.6816 91.1074 30.498 91.582 30.4395 92.1914H33.8379C33.834 91.8086 33.7734 91.4727 33.6562 91.1836C33.543 90.8906 33.3691 90.6641 33.1348 90.5039C32.9004 90.3398 32.5996 90.2578 32.2324 90.2578ZM41.7363 95.9883L40.5938 92.25C40.543 92.0898 40.4941 91.9336 40.4473 91.7812C40.4043 91.625 40.3633 91.4766 40.3242 91.3359C40.2891 91.1914 40.2559 91.0586 40.2246 90.9375C40.1973 90.8125 40.1738 90.7051 40.1543 90.6152H40.1133C40.0977 90.7051 40.0762 90.8125 40.0488 90.9375C40.0215 91.0586 39.9883 91.1914 39.9492 91.3359C39.9141 91.4805 39.875 91.6328 39.832 91.793C39.7891 91.9492 39.7402 92.1074 39.6855 92.2676L38.4902 95.9883H37.3945L35.625 89.5664H36.6328L37.5586 93.1113C37.6211 93.3457 37.6797 93.5781 37.7344 93.8086C37.793 94.0352 37.8418 94.25 37.8809 94.4531C37.9238 94.6523 37.9551 94.8262 37.9746 94.9746H38.0215C38.0449 94.877 38.0703 94.7598 38.0977 94.623C38.1289 94.4863 38.1621 94.3418 38.1973 94.1895C38.2363 94.0332 38.2773 93.8789 38.3203 93.7266C38.3633 93.5703 38.4062 93.4238 38.4492 93.2871L39.6328 89.5664H40.6816L41.8242 93.2812C41.8828 93.4688 41.9395 93.6641 41.9941 93.8672C42.0527 94.0703 42.1055 94.2676 42.1523 94.459C42.1992 94.6465 42.2324 94.8145 42.252 94.9629H42.2988C42.3145 94.8301 42.3438 94.666 42.3867 94.4707C42.4297 94.2754 42.4785 94.0605 42.5332 93.8262C42.5918 93.5918 42.6523 93.3535 42.7148 93.1113L43.6523 89.5664H44.6426L42.8672 95.9883H41.7363ZM51.3926 87.4336C52.0957 87.4336 52.6758 87.5215 53.1328 87.6973C53.5938 87.8691 53.9375 88.1328 54.1641 88.4883C54.3906 88.8438 54.5039 89.2969 54.5039 89.8477C54.5039 90.3008 54.4219 90.6797 54.2578 90.9844C54.0938 91.2852 53.8789 91.5293 53.6133 91.7168C53.3477 91.9043 53.0645 92.0488 52.7637 92.1504L55.1133 96H53.9531L51.8555 92.4258H50.0742V96H49.0781V87.4336H51.3926ZM51.334 88.2949H50.0742V91.582H51.4336C52.1328 91.582 52.6465 91.4395 52.9746 91.1543C53.3066 90.8691 53.4727 90.4492 53.4727 89.8945C53.4727 89.3125 53.2969 88.9004 52.9453 88.6582C52.5977 88.416 52.0605 88.2949 51.334 88.2949ZM58.8105 89.4609C59.3574 89.4609 59.8262 89.582 60.2168 89.8242C60.6074 90.0664 60.9062 90.4062 61.1133 90.8438C61.3203 91.2773 61.4238 91.7852 61.4238 92.3672V92.9707H56.9883C57 93.7246 57.1875 94.2988 57.5508 94.6934C57.9141 95.0879 58.4258 95.2852 59.0859 95.2852C59.4922 95.2852 59.8516 95.248 60.1641 95.1738C60.4766 95.0996 60.8008 94.9902 61.1367 94.8457V95.7012C60.8125 95.8457 60.4902 95.9512 60.1699 96.0176C59.8535 96.084 59.4785 96.1172 59.0449 96.1172C58.4277 96.1172 57.8887 95.9922 57.4277 95.7422C56.9707 95.4883 56.6152 95.1172 56.3613 94.6289C56.1074 94.1406 55.9805 93.543 55.9805 92.8359C55.9805 92.1445 56.0957 91.5469 56.3262 91.043C56.5605 90.5352 56.8887 90.1445 57.3105 89.8711C57.7363 89.5977 58.2363 89.4609 58.8105 89.4609ZM58.7988 90.2578C58.2793 90.2578 57.8652 90.4277 57.5566 90.7676C57.248 91.1074 57.0645 91.582 57.0059 92.1914H60.4043C60.4004 91.8086 60.3398 91.4727 60.2227 91.1836C60.1094 90.8906 59.9355 90.6641 59.7012 90.5039C59.4668 90.3398 59.166 90.2578 58.7988 90.2578ZM65.4785 89.4727C66.2441 89.4727 66.8125 89.6445 67.1836 89.9883C67.5547 90.332 67.7402 90.8809 67.7402 91.6348V96H67.0312L66.8438 95.0508H66.7969C66.6172 95.2852 66.4297 95.4824 66.2344 95.6426C66.0391 95.7988 65.8125 95.918 65.5547 96C65.3008 96.0781 64.9883 96.1172 64.6172 96.1172C64.2266 96.1172 63.8789 96.0488 63.5742 95.9121C63.2734 95.7754 63.0352 95.5684 62.8594 95.291C62.6875 95.0137 62.6016 94.6621 62.6016 94.2363C62.6016 93.5957 62.8555 93.1035 63.3633 92.7598C63.8711 92.416 64.6445 92.2285 65.6836 92.1973L66.791 92.1504V91.7578C66.791 91.2031 66.6719 90.8145 66.4336 90.5918C66.1953 90.3691 65.8594 90.2578 65.4258 90.2578C65.0898 90.2578 64.7695 90.3066 64.4648 90.4043C64.1602 90.502 63.8711 90.6172 63.5977 90.75L63.2988 90.0117C63.5879 89.8633 63.9199 89.7363 64.2949 89.6309C64.6699 89.5254 65.0645 89.4727 65.4785 89.4727ZM66.7793 92.8359L65.8008 92.877C65 92.9082 64.4355 93.0391 64.1074 93.2695C63.7793 93.5 63.6152 93.8262 63.6152 94.248C63.6152 94.6152 63.7266 94.8867 63.9492 95.0625C64.1719 95.2383 64.4668 95.3262 64.834 95.3262C65.4043 95.3262 65.8711 95.168 66.2344 94.8516C66.5977 94.5352 66.7793 94.0605 66.7793 93.4277V92.8359ZM70.7227 96H69.7441V86.8828H70.7227V96ZM73.752 89.5781V96H72.7793V89.5781H73.752ZM73.2773 87.1758C73.4375 87.1758 73.5742 87.2285 73.6875 87.334C73.8047 87.4355 73.8633 87.5957 73.8633 87.8145C73.8633 88.0293 73.8047 88.1895 73.6875 88.2949C73.5742 88.4004 73.4375 88.4531 73.2773 88.4531C73.1094 88.4531 72.9688 88.4004 72.8555 88.2949C72.7461 88.1895 72.6914 88.0293 72.6914 87.8145C72.6914 87.5957 72.7461 87.4355 72.8555 87.334C72.9688 87.2285 73.1094 87.1758 73.2773 87.1758ZM77.8887 95.3203C78.0488 95.3203 78.2129 95.3066 78.3809 95.2793C78.5488 95.252 78.6855 95.2188 78.791 95.1797V95.9355C78.6777 95.9863 78.5195 96.0293 78.3164 96.0645C78.1172 96.0996 77.9219 96.1172 77.7305 96.1172C77.3906 96.1172 77.082 96.0586 76.8047 95.9414C76.5273 95.8203 76.3047 95.6172 76.1367 95.332C75.9727 95.0469 75.8906 94.6523 75.8906 94.1484V90.3398H74.9766V89.8652L75.8965 89.4844L76.2832 88.0898H76.8691V89.5781H78.75V90.3398H76.8691V94.1191C76.8691 94.5215 76.9609 94.8223 77.1445 95.0215C77.332 95.2207 77.5801 95.3203 77.8887 95.3203ZM79.0781 89.5781H80.1211L81.5391 93.3047C81.6211 93.5234 81.6973 93.7344 81.7676 93.9375C81.8379 94.1367 81.9004 94.3281 81.9551 94.5117C82.0098 94.6953 82.0527 94.873 82.084 95.0449H82.125C82.1797 94.8496 82.2578 94.5938 82.3594 94.2773C82.4609 93.957 82.5703 93.6309 82.6875 93.2988L84.0293 89.5781H85.0781L82.2832 96.9434C82.1348 97.3379 81.9609 97.6816 81.7617 97.9746C81.5664 98.2676 81.3281 98.4922 81.0469 98.6484C80.7656 98.8086 80.4258 98.8887 80.0273 98.8887C79.8438 98.8887 79.6816 98.877 79.541 98.8535C79.4004 98.834 79.2793 98.8105 79.1777 98.7832V98.0039C79.2637 98.0234 79.3672 98.041 79.4883 98.0566C79.6133 98.0723 79.7422 98.0801 79.875 98.0801C80.1172 98.0801 80.3262 98.0332 80.502 97.9395C80.6816 97.8496 80.8359 97.7168 80.9648 97.541C81.0938 97.3652 81.2051 97.1562 81.2988 96.9141L81.6504 96.0117L79.0781 89.5781Z" fill="#0D00FF"/>
<path d="M59.3416 50.6811V49.1436H58.7819V48.9156H60.1735V49.1436H59.6035V50.6709L59.3416 50.6811ZM62.1274 50.6811V49.3153L61.4881 50.2711H61.465L60.8385 49.3153V50.6811H60.5766V48.9156H60.8616L61.4881 49.8714L62.1274 48.9156H62.379V50.6683L62.1274 50.6811ZM24.207 50.8169C24.1274 50.8169 24.0941 50.7708 24.0581 50.7042L15.7161 24.7256C15.7161 24.6794 15.7264 24.6333 15.7726 24.6L38.9834 0.046125C39.0142 0.0179375 39.0527 0.0025625 39.0963 0L67.5681 0.0230625C67.6605 0.0230625 67.7273 0.1025 67.7273 0.19475C67.7273 0.217812 67.7273 0.251125 67.6939 0.287L29.8428 42.8809C29.7941 42.9296 29.7632 42.9987 29.7632 43.0731C29.7632 43.2781 30.0149 43.4497 30.2203 43.2883L49.9289 27.5725C50.0213 27.5264 50.1009 27.4802 50.237 27.4597L77.9668 27.1522C78.0592 27.1522 78.1259 27.2317 78.1157 27.3239C78.1157 27.3573 78.1157 27.4034 78.0823 27.4367L54.6327 50.7836C54.6045 50.8144 54.5634 50.8349 54.5197 50.84L24.207 50.8169ZM91.4876 66.2944H92.0345C92.3092 66.2944 92.4915 66.1817 92.4915 65.9408C92.4915 65.7256 92.3426 65.6 92.0576 65.6H91.4876V66.2944ZM92.5274 67.2733L91.9574 66.5456H91.467V67.2733H91.1923V65.3489H92.0601C92.2886 65.3489 92.5043 65.4181 92.6301 65.5641C92.7097 65.6564 92.7893 65.7691 92.7893 65.9408C92.7893 66.2381 92.5736 66.4303 92.2861 66.5097L92.8792 67.2733H92.5274ZM90.2217 66.3636C90.2217 67.2964 90.9509 68.0728 91.9343 68.0728C92.9049 68.0959 93.6469 67.2989 93.6469 66.3636C93.6469 65.395 92.928 64.6544 91.9343 64.6544C90.9535 64.6544 90.2217 65.4181 90.2217 66.3636ZM90.0626 66.3867C90.0626 65.3617 90.8842 64.4853 91.9446 64.4853C92.9947 64.4853 93.8163 65.3284 93.8163 66.3636C93.8163 67.3886 92.9947 68.2317 91.9446 68.2317C90.8842 68.2317 90.0626 67.3886 90.0626 66.3867ZM86.4885 81.6925L79.8693 73.3439L76.1951 77.08V81.6925H74.2541V64.4622H76.172V74.7584L86.088 64.4622H88.599L81.2045 71.9781L88.9303 81.6925H86.4885ZM26.3638 81.7156V64.4622H38.837V66.2381H28.3151V72.1267H37.7407V73.9153H28.3023V79.9398H38.9731V81.7156H26.3638ZM50.3038 81.7156V64.4622H62.777V66.2381H52.268V72.1267H61.6935V73.9153H52.268V79.9398H62.9388V81.7156H50.3038ZM0.00256757 73.1389V73.0928C0.00256757 68.2061 3.65365 64.1753 8.74257 64.1753C11.8699 64.1753 13.7416 65.2797 15.4747 66.9197L14.1396 68.3547C12.7814 66.9069 10.8582 65.9997 8.72203 65.9869H8.71946C4.88608 65.9869 2.02068 69.085 2.02068 73.0492V73.0953C2.02068 77.0826 4.90662 80.1909 8.71946 80.1909C11.0919 80.1909 12.6453 79.2786 14.2885 77.7078L15.5774 78.9711C13.775 80.8059 11.8005 82 8.67324 82C3.66392 82 0 78.0819 0 73.1389H0.00256757Z" fill="#0D00FF"/>
</g>
<defs>
<clipPath id="clip0_10545_149">
<rect width="95" height="99" fill="white"/>
</clipPath>
</defs>
</svg>
