<svg width="24" height="24" viewBox="0 0 24 24" fill="none" xmlns="http://www.w3.org/2000/svg">
<g id="Iconly/Light/Profile">
<g id="Profile">
<path id="Stroke 1 (Stroke)" fill-rule="evenodd" clip-rule="evenodd" d="M8.67075 14.2826C9.5735 13.98 10.7694 13.8887 12.0003 13.8887C13.2386 13.8887 14.4349 13.9835 15.3365 14.2901C15.7897 14.4443 16.203 14.6632 16.5071 14.9819C16.8221 15.3121 17 15.7296 17 16.223C17 16.7175 16.8205 17.1348 16.5037 17.4637C16.1981 17.7809 15.7833 17.9978 15.3296 18.15C14.427 18.4527 13.2312 18.5442 12.0003 18.5442C10.762 18.5442 9.56559 18.4495 8.66391 18.143C8.21058 17.9888 7.79719 17.7699 7.49302 17.4512C7.17794 17.121 7 16.7034 7 16.2098C7 15.7152 7.17954 15.2978 7.49644 14.9689C7.80211 14.6516 8.21698 14.4348 8.67075 14.2826ZM8.17843 15.6259C8.02807 15.782 7.94697 15.9652 7.94697 16.2098C7.94697 16.4554 8.02802 16.6401 8.17813 16.7974C8.33917 16.9662 8.59719 17.1201 8.9687 17.2464C9.7167 17.5007 10.7837 17.5972 12.0003 17.5972C13.2111 17.5972 14.2784 17.5037 15.0285 17.2521C15.4011 17.1272 15.6601 16.9745 15.8216 16.8067C15.972 16.6506 16.053 16.4675 16.053 16.223C16.053 15.9775 15.972 15.7929 15.8219 15.6356C15.6609 15.4669 15.403 15.313 15.0315 15.1867C14.2837 14.9323 13.2169 14.8356 12.0003 14.8356C10.7895 14.8356 9.72201 14.9289 8.97178 15.1805C8.59906 15.3054 8.34003 15.4581 8.17843 15.6259Z" fill="#3B5162"/>
<path id="Stroke 3 (Stroke)" fill-rule="evenodd" clip-rule="evenodd" d="M8.64845 9.35121C8.64887 7.50006 10.15 6 12.001 6C13.8524 6 15.353 7.50059 15.353 9.35197C15.353 11.2032 13.8525 12.7045 12.001 12.7045H11.9806L11.9791 12.7045C10.1338 12.6983 8.64261 11.1967 8.64845 9.35121ZM12.001 6.90188C10.6476 6.90188 9.55033 7.99881 9.55033 9.35197V9.3535C9.54576 10.7013 10.6346 11.7977 11.9814 11.8027H12.001C13.3542 11.8027 14.4511 10.7054 14.4511 9.35197C14.4511 7.99869 13.3543 6.90188 12.001 6.90188Z" fill="#3B5162"/>
</g>
<circle id="Ellipse 75" cx="12" cy="12" r="10.25" stroke="#3B5162" stroke-width="1.5"/>
</g>
</svg>
